<svg width="54" height="54" viewBox="0 0 54 54" fill="none" xmlns="http://www.w3.org/2000/svg">
<g clip-path="url(#clip0_26_280)">
<path d="M46.6172 19.0898V44.4023H7.38281V19.0898H17.6038L16.4531 22.2539L27 37.0195L37.5469 22.2539L36.3962 19.0898H46.6172Z" fill="#8A61FF"/>
<path d="M52.9453 43.3477H51.8906V18.0352C51.8906 15.7089 49.9981 13.8164 47.6719 13.8164H35.601L34.8339 11.707H35.9648C36.5472 11.707 37.0195 11.2347 37.0195 10.6523V5.37891C37.0195 4.79651 36.5472 4.32422 35.9648 4.32422H33.8555V1.16016C33.8555 0.577758 33.3832 0.105469 32.8008 0.105469H21.1992C20.6167 0.105469 20.1445 0.577758 20.1445 1.16016V4.32422H18.0352C17.4527 4.32422 16.9805 4.79651 16.9805 5.37891V10.6523C16.9805 11.2347 17.4527 11.707 18.0352 11.707H19.1661L18.399 13.8164H6.32812C4.00191 13.8164 2.10938 15.7089 2.10938 18.0352V43.3477H1.05469C0.472184 43.3477 0 43.8199 0 44.4023V49.6758C0 52.002 1.89253 53.8945 4.21875 53.8945H49.7812C52.1075 53.8945 54 52.002 54 49.6758V44.4023C54 43.8199 53.5277 43.3477 52.9453 43.3477ZM22.2539 2.21484H31.7461V4.32422H22.2539V2.21484ZM19.0898 6.43359H34.9102V9.59766C32.5574 9.59766 21.1836 9.59766 19.0898 9.59766V6.43359ZM32.5894 11.707L36.3659 22.0926L28.0547 33.7284V24.1818C29.2822 23.7465 30.1641 22.5741 30.1641 21.1992C30.1641 19.4546 28.7447 18.0352 27 18.0352C25.2553 18.0352 23.8359 19.4546 23.8359 21.1992C23.8359 22.5741 24.7178 23.7465 25.9453 24.1818V33.7284L17.6341 22.0926L21.4106 11.707H32.5894ZM27 22.2539C26.4184 22.2539 25.9453 21.7808 25.9453 21.1992C25.9453 20.6177 26.4184 20.1445 27 20.1445C27.5816 20.1445 28.0547 20.6177 28.0547 21.1992C28.0547 21.7808 27.5816 22.2539 27 22.2539ZM4.21875 18.0352C4.21875 16.872 5.16502 15.9258 6.32812 15.9258H17.6321L15.4619 21.8934C15.3432 22.2201 15.393 22.5841 15.5949 22.8669L24.9505 35.9648H17.8538C17.4184 34.7373 16.246 33.8555 14.8711 33.8555C13.1264 33.8555 11.707 35.2749 11.707 37.0195C11.707 38.7642 13.1264 40.1836 14.8711 40.1836C16.246 40.1836 17.4184 39.3018 17.8538 38.0742H36.1463C36.5817 39.3018 37.754 40.1836 39.1289 40.1836C40.8736 40.1836 42.293 38.7642 42.293 37.0195C42.293 35.2749 40.8736 33.8555 39.1289 33.8555C37.754 33.8555 36.5817 34.7373 36.1463 35.9648H29.0496L38.4052 22.8669C38.6072 22.584 38.6569 22.2199 38.5381 21.8934L36.3679 15.9258H47.6719C48.835 15.9258 49.7812 16.872 49.7812 18.0352V43.3477C47.3169 43.3477 5.27629 43.3477 4.21875 43.3477V18.0352ZM15.9258 37.0195C15.9258 37.6011 15.4526 38.0742 14.8711 38.0742C14.2895 38.0742 13.8164 37.6011 13.8164 37.0195C13.8164 36.438 14.2895 35.9648 14.8711 35.9648C15.4526 35.9648 15.9258 36.438 15.9258 37.0195ZM38.0742 37.0195C38.0742 36.438 38.5474 35.9648 39.1289 35.9648C39.7105 35.9648 40.1836 36.438 40.1836 37.0195C40.1836 37.6011 39.7105 38.0742 39.1289 38.0742C38.5474 38.0742 38.0742 37.6011 38.0742 37.0195ZM22.2539 45.457H31.7461V47.5664H22.2539V45.457ZM51.8906 49.6758C51.8906 50.8389 50.9444 51.7852 49.7812 51.7852H4.21875C3.05564 51.7852 2.10938 50.8389 2.10938 49.6758V45.457H20.1445V48.6211C20.1445 49.2035 20.6167 49.6758 21.1992 49.6758H32.8008C33.3832 49.6758 33.8555 49.2035 33.8555 48.6211V45.457H51.8906V49.6758Z" fill="#03010D"/>
</g>
<defs>
<clipPath id="clip0_26_280">
<rect width="54" height="54" fill="white"/>
</clipPath>
</defs>
</svg>
