<svg width="54" height="54" viewBox="0 0 54 54" fill="none" xmlns="http://www.w3.org/2000/svg">
<path fill-rule="evenodd" clip-rule="evenodd" d="M11.6016 35.4375V30.1641H5.80078V43.3477H48.1992V30.1641H42.3984V35.4375H37.125V30.1641H16.875V35.4375H11.6016Z" fill="#FF9F87"/>
<path d="M52.9453 11.1797H37.4384L36.4516 7.7259C35.7371 5.22492 34.1879 4.85156 33.3281 4.85156H20.6719C19.8121 4.85156 18.263 5.22503 17.5484 7.7259L16.5615 11.1797H1.05469C0.472184 11.1797 0 11.6519 0 12.2344V43.875C0 46.7828 2.36566 49.1484 5.27344 49.1484H48.7266C51.6343 49.1484 54 46.7828 54 43.875V12.2344C54 11.6519 53.5277 11.1797 52.9453 11.1797ZM19.5766 8.30535C19.8315 7.41329 20.2 6.96094 20.6719 6.96094H33.3281C33.8 6.96094 34.1685 7.41329 34.4233 8.30545L35.2446 11.1797H18.7554L19.5766 8.30535ZM2.10938 13.2891H51.8906V25.9453C51.8906 27.69 50.4712 29.1094 48.7266 29.1094H43.4531V27.5273C43.4531 25.4919 41.7972 23.8359 39.7617 23.8359C37.7263 23.8359 36.0703 25.4919 36.0703 27.5273V29.1094H17.9297V27.5273C17.9297 25.4919 16.2737 23.8359 14.2383 23.8359C12.2028 23.8359 10.5469 25.4919 10.5469 27.5273V29.1094H5.27344C3.52877 29.1094 2.10938 27.69 2.10938 25.9453V13.2891ZM38.1797 31.2188H41.3438V34.3828H38.1797V31.2188ZM38.1797 29.1094V27.5273C38.1797 26.655 38.8894 25.9453 39.7617 25.9453C40.6341 25.9453 41.3438 26.655 41.3438 27.5273V29.1094H38.1797ZM12.6562 31.2188H15.8203V34.3828H12.6562V31.2188ZM12.6562 29.1094V27.5273C12.6562 26.655 13.3659 25.9453 14.2383 25.9453C15.1106 25.9453 15.8203 26.655 15.8203 27.5273V29.1094H12.6562ZM48.7266 47.0391H5.27344C3.52877 47.0391 2.10938 45.6197 2.10938 43.875V30.1615C2.9913 30.825 4.08723 31.2188 5.27344 31.2188H10.5469V35.4375C10.5469 36.02 11.0191 36.4922 11.6016 36.4922H16.875C17.4575 36.4922 17.9297 36.02 17.9297 35.4375V31.2188H36.0703V35.4375C36.0703 36.02 36.5425 36.4922 37.125 36.4922H42.3984C42.9809 36.4922 43.4531 36.02 43.4531 35.4375V31.2188H48.7266C49.9128 31.2188 51.0087 30.825 51.8906 30.1615V43.875C51.8906 45.6197 50.4712 47.0391 48.7266 47.0391Z" fill="#03010D"/>
</svg>
