<svg width="54" height="54" viewBox="0 0 54 54" fill="none" xmlns="http://www.w3.org/2000/svg">
<g clip-path="url(#clip0_26_300)">
<path d="M44.4729 31.7651V49.7687C44.4729 51.5226 43.0511 52.9454 41.2962 52.9454H12.7036C10.9486 52.9454 9.52686 51.5226 9.52686 49.7687V31.7651H44.4729Z" fill="#7CEED0"/>
<path d="M13.7622 28.5841C14.3447 28.5841 14.8169 28.1119 14.8169 27.5294C14.8169 26.9469 14.3447 26.4747 13.7622 26.4747C13.1797 26.4747 12.7075 26.9469 12.7075 27.5294C12.7075 28.1119 13.1797 28.5841 13.7622 28.5841Z" fill="#03010D"/>
<path d="M17.9985 28.5839C18.5835 28.5839 19.0532 28.108 19.0531 27.5292C19.0531 26.9495 18.5809 26.4745 17.9984 26.4746C17.4165 26.4746 16.9438 26.9492 16.9438 27.5293C16.9438 28.1035 17.4093 28.584 17.9985 28.5839Z" fill="#03010D"/>
<path d="M22.2345 26.4749C21.6495 26.4749 21.1797 26.9508 21.1797 27.5298C21.1797 28.1095 21.652 28.5845 22.2346 28.5845C22.8167 28.5845 23.2894 28.1099 23.2894 27.5296C23.2894 26.9554 22.8238 26.4749 22.2345 26.4749Z" fill="#03010D"/>
<path d="M47.8668 14.1884C48.3689 6.57313 42.3156 0 34.631 0C29.1377 0 24.4331 3.34811 22.4073 8.16729C16.5637 3.77863 8.00645 6.87108 6.35945 14.1211C2.64379 15.1727 0 18.8807 0 23.1781C0 28.3337 3.79856 32.5279 8.46756 32.5279H8.47231V49.7686C8.47231 52.1018 10.3705 54 12.7037 54H41.2963C43.6295 54 45.5277 52.1018 45.5277 49.7686V32.5279H45.5324C50.2015 32.5279 54 28.3335 54 23.1781C54 18.9074 51.4134 15.3112 47.8668 14.1884ZM43.4183 49.7686C43.4183 50.9388 42.4665 51.8906 41.2963 51.8906H12.7037C11.5335 51.8906 10.5817 50.9388 10.5817 49.7686V26.4705C10.5817 25.3004 11.5335 24.3485 12.7037 24.3485H41.2963C42.4665 24.3485 43.4183 25.3004 43.4183 26.4705V49.7686ZM45.5324 30.4186H45.5277V26.4705C45.5277 24.1374 43.6295 22.2391 41.2963 22.2391H12.7037C10.3705 22.2391 8.47231 24.1374 8.47231 26.4705V30.4186H8.46756C4.96167 30.4186 2.10938 27.1704 2.10938 23.1781C2.10938 19.5997 4.35776 16.5933 7.45548 16.0298C7.89803 15.9492 8.2408 15.5969 8.30914 15.1524C8.9138 11.2188 12.356 8.25261 16.3158 8.25261C18.5219 8.25261 20.5854 9.13085 22.1263 10.7254C22.69 11.3093 23.6799 11.0625 23.9002 10.2776C25.2502 5.46834 29.6629 2.10938 34.631 2.10938C41.2888 2.10938 46.5915 8.01204 45.6815 14.8508C45.6071 15.409 45.9843 15.9269 46.5383 16.0277C49.6397 16.5914 51.8906 19.5985 51.8906 23.1781C51.8906 27.1704 49.0383 30.4186 45.5324 30.4186Z" fill="#03010D"/>
<path d="M21.426 36.3512C21.0341 35.9202 20.3672 35.8885 19.9362 36.2802L14.1122 41.5748C13.6512 41.9939 13.653 42.7181 14.1121 43.1355L19.9361 48.4311C20.1381 48.6148 20.3921 48.7055 20.6453 48.7055C21.6048 48.7055 22.0671 47.5177 21.3551 46.8706L16.3895 42.3553L21.355 37.8411C21.7862 37.4492 21.8178 36.7822 21.426 36.3512Z" fill="#03010D"/>
<path d="M34.0639 36.2801C33.6329 35.8882 32.966 35.9199 32.5741 36.3511C32.1823 36.7821 32.214 37.4492 32.6451 37.841L37.6106 42.3552L32.645 46.8705C32.214 47.2623 32.1823 47.9294 32.5742 48.3603C32.966 48.7913 33.633 48.823 34.064 48.4311L39.888 43.1355C40.3472 42.7181 40.3487 41.9938 39.8879 41.5748L34.0639 36.2801Z" fill="#03010D"/>
<path d="M29.5095 36.0813C28.9687 35.8653 28.3549 36.1279 28.1385 36.6689L23.9029 47.259C23.6865 47.7999 23.9496 48.4137 24.4904 48.63C25.0302 48.8456 25.6445 48.5847 25.8614 48.0424L30.097 37.4523C30.3134 36.9116 30.0503 36.2976 29.5095 36.0813Z" fill="#03010D"/>
</g>
<defs>
<clipPath id="clip0_26_300">
<rect width="54" height="54" fill="white"/>
</clipPath>
</defs>
</svg>
